# xmcd
#
# Track frame offsets:
#	183
#	14055
#	26730
#	37538
#	50315
#	62988
#	72960
#	90788
#	105698
#	119283
#	132670
#	146340
#	163725
#	178450
#	197988
#	214723
#	226990
#	239005
#	256500
#	267063
#
# Disc length: 3704
#
# Revision: 1
# Processed by: cddbd v1.5.1PL0 Copyright (c) Steve Scherf et al.
# Submitted via: Grip 2.96
# Normalized: r0:DSETVAR1
#
DISCID=1d0e7614
DTITLE=Various Artist - Het Beste Uit de Country Jukebox TOP100 Aller tijden cd2
DYEAR=1900
DGENRE=
TTITLE0=Dolly Parton - I will always love you
TTITLE1=Don Williams - You're my best friend
TTITLE2=Hank Locklin - Please help me, i'm falling
TTITLE3=Patsy Cline - I fall to pieces
TTITLE4=Bobby Bare - Detroit City
TTITLE5=George Hamilton IV - Abilene
TTITLE6=Bobby Goldsboro - Honey
TTITLE7=Slim Whitman - Indian Love Call
TTITLE8=Loretta Lynn - Coal miner's daughter
TTITLE9=Oak Ridge Boys - Leaving Louisiana in the broad daylight
TTITLE10=Conway Twitty - You've never been this far before
TTITLE11=Billy Jo Spears - Blanket on the ground
TTITLE12=Willie Nelson - Sweet Memories
TTITLE13=Kenny Rogers - Coward of the county
TTITLE14=Don McLean - Crying
TTITLE15=Conway Twitty and Loretta Lynn - As soon as I hang up the phone
TTITLE16=Crystal Gale - Don't it make my brown eyes blue
TTITLE17=Mary McGregor - Torn between to lovers
TTITLE18=Jim Reeves - He'll have to go
TTITLE19=Charlie Rich - There won't be anymore
EXTD=
EXTT0=
EXTT1=
EXTT2=
EXTT3=
EXTT4=
EXTT5=
EXTT6=
EXTT7=
EXTT8=
EXTT9=
EXTT10=
EXTT11=
EXTT12=
EXTT13=
EXTT14=
EXTT15=
EXTT16=
EXTT17=
EXTT18=
EXTT19=
PLAYORDER=
